<svg data-name="Programmed Logo - Light - TBC" xmlns="http://www.w3.org/2000/svg" width="296.378" height="42.526"><g data-name="Group 2"><path data-name="Path 1" d="M52.388 8.552h8.545c3.108 0 5.189.176 6.521 2.048a5.925 5.925 0 01.821 4.944 8.6 8.6 0 01-3.072 4.979c-1.627 1.342-3.572 2.189-8.163 2.189h-4.131l-2.411 11.335h-3.531zm1.151 11.194h4.2c2.331 0 5.935-.177 6.821-4.343.848-3.991-2.471-3.991-4.307-3.991h-4.944z" fill="#fff"/><path data-name="Path 2" d="M73.714 8.552h9.112c1.307 0 3.99 0 5.607 1.2a4.854 4.854 0 011.721 5.19 8.149 8.149 0 01-6.116 6.18c2.3.636 3.163 1.731 2.841 4.909a32.024 32.024 0 00-.115 8.016h-3.779a42.115 42.115 0 01.269-6.745c.364-3.708-.294-4.768-4.566-4.768h-4.45l-2.447 11.513h-3.5zm1.091 10.982h5.579a9.07 9.07 0 003.475-.565 4.753 4.753 0 002.436-3.319c.879-4.132-2.794-4.132-4.206-4.132h-5.58z" fill="#fff"/><path data-name="Path 3" d="M97.421 11.307a13.836 13.836 0 019.239-3.426c7.062 0 10.55 4.52 8.711 13.172-1.442 6.78-5.609 13.6-14.684 13.6-8.687 0-10.2-6.179-8.712-13.171.615-2.9 2.018-7.169 5.446-10.17m-1.145 18.009c1.065 1.8 3.142 2.331 5.154 2.331a8.63 8.63 0 006.146-2.331c2.624-2.542 3.692-6.568 4.06-8.3 1.231-5.792.255-10.17-5.572-10.17-6.462 0-9.225 5.19-10.336 10.417-.593 2.79-.752 5.862.548 8.051" fill="#fff"/><path data-name="Path 4" d="M137.898 14.908c.115-2.366-1.447-3.99-4.908-3.99a8.911 8.911 0 00-6.214 2.154 15.25 15.25 0 00-4.46 8.192c-.458 2.154-.772 5.792.626 8.016 1.255 1.907 3.7 2.507 6.247 2.507a19.662 19.662 0 005.717-.812l1.607-7.557h-5.827l.623-2.931h9.358l-2.673 12.572a31.108 31.108 0 01-9.405 1.554c-4.7 0-7.166-1.342-8.577-3.178-1.966-2.542-2.267-6.109-1.5-9.711.541-2.542 2.453-8.545 7.981-11.794a15.188 15.188 0 017.481-1.8c2.013 0 5.032.247 6.944 2.719a5 5 0 01.831 4.061z" fill="#fff"/><path data-name="Path 5" d="M147.616 8.552h9.11c1.306 0 3.991 0 5.606 1.2a4.852 4.852 0 011.722 5.19 8.149 8.149 0 01-6.116 6.18c2.3.636 3.163 1.731 2.841 4.909a32.027 32.027 0 00-.115 8.016h-3.778a42.122 42.122 0 01.269-6.745c.364-3.708-.294-4.768-4.566-4.768h-4.449l-2.448 11.513h-3.5zm1.091 10.982h5.579a9.067 9.067 0 003.475-.565 4.752 4.752 0 002.436-3.319c.879-4.132-2.794-4.132-4.206-4.132h-5.58z" fill="#fff"/><path data-name="Path 6" d="M178.3 8.552h3.778l4.892 25.5h-3.85l-1.342-6.639h-11.83l-4.166 6.639h-3.637zm-6.614 16h9.64l-2.039-12.5z" fill="#fff"/><path data-name="Path 7" d="M194.326 8.552h6.25l2.737 21.011 11.848-21.011h5.825l-5.42 25.5h-3.46l4.88-22.954-13.25 22.954h-3.35l-3.2-22.812-4.85 22.812h-3.425z" fill="#fff"/><path data-name="Path 8" d="M226.426 8.552h6.25l2.737 21.011 11.848-21.011h5.825l-5.42 25.5h-3.46l4.88-22.954-13.249 22.954h-3.355l-3.2-22.812-4.85 22.812h-3.425z" fill="#fff"/><path data-name="Path 9" d="M257.497 8.552h16l-.639 3h-12.465l-1.689 7.946h11.865l-.631 2.966h-11.865l-1.8 8.475h12.748l-.661 3.108h-16.279z" fill="#fff"/><path data-name="Path 10" d="M277.906 8.552h7.38c3.426 0 7.452 0 9.571 3.32 1.7 2.648 1.836 6.144 1.093 9.64a16.8 16.8 0 01-6.46 10.452c-2.95 2.084-6.093 2.084-9.836 2.084h-7.168zm-1.273 22.6h3.46c2.437 0 5.009-.141 6.975-1.413 3.766-2.436 4.758-6.6 5.073-8.086.2-.954 1.056-5.3-.782-7.945-1.242-1.8-3.2-2.225-6.307-2.225h-4.237z" fill="#fff"/><path data-name="Path 11" d="M8.478 38.549V25.807h12.748z" fill="#84bd00" fill-rule="evenodd"/><path data-name="Path 12" d="M21.305 16.72h12.743V3.978z" fill="#84bd00" fill-rule="evenodd"/><path data-name="Path 13" d="M24.445 42.526l-9.01-9.011 9.01-9.01z" fill="#84bd00" fill-rule="evenodd"/><path data-name="Path 14" d="M18.08 18.02l9.01-9.01L18.08 0z" fill="#84bd00" fill-rule="evenodd"/><path data-name="Path 15" d="M38.548 34.048H25.806V21.305z" fill="#84bd00" fill-rule="evenodd"/><path data-name="Path 16" d="M16.719 21.22V8.478H3.976z" fill="#84bd00" fill-rule="evenodd"/><path data-name="Path 17" d="M42.526 18.08l-9.01 9.01-9.011-9.01z" fill="#84bd00" fill-rule="evenodd"/><path data-name="Path 18" d="M18.02 24.445l-9.01-9.01L0 24.445z" fill="#84bd00" fill-rule="evenodd"/></g></svg>